{"title":"Videography - U2 - DVDQ [.vob] - Part 3","uid":6628224,"size":1046550073,"categoryP":"video","categoryS":"music_videos","magnet":"?xt=urn:btih:4d95b3fcd3fea4f3b6b1e7d8102c87d6bf553209&amp;dn=Videography+-+U2+-+DVDQ+%5B.vob%5D+-+Part+3&amp;tr=udp%3A%2F%2Ftracker.openbittorrent.com%3A80&amp;tr=udp%3A%2F%2Fopen.demonii.com%3A1337&amp;tr=udp%3A%2F%2Ftracker.coppersurfer.tk%3A6969&amp;tr=udp%3A%2F%2Fexodus.desync.com%3A6969","seeders":3,"leechers":0,"uploader":"dehou","files":5,"time":1314232448,"description":"Part 3\n\nU2 - The Unforgettable Fire Collection DVD - Pride (In The Name Of Love) [Sepia Version] [1984].vob\nU2 - U218 Videos - Pride (In The Name Of Love) [Slane Castle Version] [1984].vob\nU2 - U218 Videos - Where The Streets Have No Name [1987].vob\nU2 - Christmas (Baby Please Come Home) [1987].vob\n\n\nSo far\n\nU2 - I Will Follow [Old Grey Whistle Test] [1981].vob\nU2 - The Unforgettable Fire Collection DVD - 11 O'Clock Tick Tock [Bootleg Version] [1983].vob\nU2 - The Unforgettable Fire Collection DVD - A Sort Of Homecoming [1984].vob\nU2 - U218 Videos - New Year's Day [1983].vob\nU2 - U218 Videos - Sunday Bloody Sunday [Live At Red Rocks] [1983].vob\nU2 - The Unforgettable Fire Collection DVD - Bad [1984].vob\nU2 - The Unforgettable Fire Collection DVD - Pride (In The Name Of Love) [1984].vob\nU2 - The Unforgettable Fire Collection DVD - The Unforgettable Fire [1985].vob\n\n\nFormat info for the videos from &quot;The Unforgettable Fire Collection DVD&quot;\n\nVideo\nID                               : 224 (0xE0)\nFormat                           : MPEG Video\nFormat version                   : Version 2\nFormat profile                   : Main@Main\nFormat settings, BVOP            : Yes\nFormat settings, Matrix          : Custom\nBit rate mode                    : Constant\nBit rate                         : 8 000 Kbps\nWidth                            : 720 pixels\nHeight                           : 480 pixels\nDisplay aspect ratio             : 4:3\nFrame rate                       : 29.970 fps\nStandard                         : NTSC\nColor space                      : YUV\nChroma subsampling               : 4:2:0\nBit depth                        : 8 bits\nScan type                        : Interlaced\nScan order                       : Top Field First\nCompression mode                 : Lossy\n\nAudio\nID                               : 189 (0xBD)-160 (0xA0)\nFormat                           : PCM\nFormat settings, Endianness      : Big\nFormat settings, Sign            : Signed\nMuxing mode                      : DVD-Video\nBit rate mode                    : Constant\nBit rate                         : 1 536 Kbps\nChannel(s)                       : 2 channels\nChannel positions                : Front: L R\nSampling rate                    : 48.0 KHz\nBit depth                        : 16 bits\n\n\nFormat info for the videos from &quot;U218 Videos&quot;\n\nVideo\nID                               : 224 (0xE0)\nFormat                           : MPEG Video\nFormat version                   : Version 2\nFormat profile                   : Main@Main\nFormat settings, BVOP            : Yes\nFormat settings, Matrix          : Custom\nBit rate mode                    : Variable\nNominal bit rate                 : 9 800 Kbps\nWidth                            : 720 pixels\nHeight                           : 576 pixels\nDisplay aspect ratio             : 4:3\nFrame rate                       : 25.000 fps\nStandard                         : PAL\nColor space                      : YUV\nChroma subsampling               : 4:2:0\nBit depth                        : 8 bits\nScan type                        : Interlaced\nScan order                       : Top Field First\nCompression mode                 : Lossy\n\nAudio\nID                               : 189 (0xBD)-160 (0xA0)\nFormat                           : PCM\nFormat settings, Endianness      : Big\nFormat settings, Sign            : Signed\nMuxing mode                      : DVD-Video\nBit rate mode                    : Constant\nBit rate                         : 1 536 Kbps\nChannel(s)                       : 2 channels\nChannel positions                : Front: L R\nSampling rate                    : 48.0 KHz\nBit depth                        : 16 bits\n\n\nFormat info for &quot;Christmas (Baby Please Come Home) [1987]&quot;\n\nVideo\nID                               : 224 (0xE0)\nFormat                           : MPEG Video\nFormat version                   : Version 2\nFormat profile                   : Main@Main\nFormat settings, BVOP            : Yes\nFormat settings, Matrix          : Default\nDuration                         : 2mn 20s\nBit rate mode                    : Variable\nBit rate                         : 5 313 Kbps\nNominal bit rate                 : 8 000 Kbps\nWidth                            : 720 pixels\nHeight                           : 480 pixels\nDisplay aspect ratio             : 4:3\nFrame rate                       : 29.970 fps\nStandard                         : NTSC\nColor space                      : YUV\nChroma subsampling               : 4:2:0\nBit depth                        : 8 bits\nScan type                        : Interlaced\nScan order                       : Top Field First\nCompression mode                 : Lossy\nBits/(Pixel*Frame)               : 0.513\nStream size                      : 88.7 MiB (91%)\n\nAudio\nID                               : 189 (0xBD)-128 (0x80)\nFormat                           : AC-3\nFormat/Info                      : Audio Coding 3\nMode extension                   : CM (complete main)\nMuxing mode                      : DVD-Video\nDuration                         : 2mn 20s\nBit rate mode                    : Constant\nBit rate                         : 384 Kbps\nChannel(s)                       : 3 channels\nChannel positions                : Front: L R, LFE\nSampling rate                    : 48.0 KHz\nBit depth                        : 16 bits\nCompression mode                 : Lossy\nStream size                      : 6.41 MiB (7%)\n\n\nMultimedia Analysis by Mediainfo &lt;a href=&quot; http://mediainfo.sourceforge.net&quot; rel=&quot;nofollow&quot; target=&quot;_NEW&quot;&gt; http://mediainfo.sourceforge.net&lt;/a&gt;\n\n\nVisit &lt;a href=&quot; http://thepiratebay.se/user/dehou/&quot; rel=&quot;nofollow&quot; target=&quot;_NEW&quot;&gt; http://thepiratebay.se/user/dehou/&lt;/a&gt; for more parts and videographys","torrent":{"xt":"urn:btih:4d95b3fcd3fea4f3b6b1e7d8102c87d6bf553209","amp;dn":"Videography+-+U2+-+DVDQ+%5B.vob%5D+-+Part+3","amp;tr":["udp%3A%2F%2Ftracker.openbittorrent.com%3A80","udp%3A%2F%2Fopen.demonii.com%3A1337","udp%3A%2F%2Ftracker.coppersurfer.tk%3A6969","udp%3A%2F%2Fexodus.desync.com%3A6969"],"infoHash":"4d95b3fcd3fea4f3b6b1e7d8102c87d6bf553209","infoHashBuffer":{"type":"Buffer","data":[77,149,179,252,211,254,164,243,182,177,231,216,16,44,135,214,191,85,50,9]},"announce":[],"urlList":[]}}